<svg width="175" height="198" viewBox="0 0 175 198" fill="none" xmlns="http://www.w3.org/2000/svg">
<path d="M163.808 43.943L76.0596 72.453C75.0298 73.1166 73.8474 73.5058 72.6247 73.5836L42.4975 83.3589H167.844C169.742 83.3589 171.562 84.1128 172.904 85.4549C174.246 86.7969 175 88.6171 175 90.515V162.076C175 171.566 171.23 180.667 164.52 187.377C157.81 194.087 148.709 197.857 139.219 197.857H39.0339C29.5444 197.857 20.4434 194.087 13.7333 187.377C7.02313 180.667 3.25341 171.566 3.25341 162.076V90.515C3.25341 88.9979 3.72571 87.581 4.54151 86.4074L1.75062 77.7914C-1.18107 68.7668 -0.407977 58.9473 3.89986 50.4926C8.2077 42.038 15.6975 35.6407 24.7217 32.7079L119.998 1.75062C129.023 -1.18107 138.842 -0.407978 147.297 3.89986C155.752 8.2077 162.149 15.6975 165.082 24.7217L168.402 34.9263C168.989 36.7294 168.836 38.6917 167.978 40.3823C167.119 42.0729 165.624 43.3535 163.822 43.943H163.808ZM110.223 46.3045L128.628 14.4456C127.199 14.6097 125.789 14.9165 124.421 15.3615L106.602 21.1437L87.8815 53.5608L110.223 46.3045V46.3045ZM143.069 17.9807C142.986 18.1608 142.895 18.3375 142.798 18.5102L130.575 39.6923L152.587 32.5362L151.471 29.1442C149.999 24.5873 147.041 20.6561 143.069 17.9807V17.9807ZM86.2499 27.7559L63.9229 35.0122L45.2025 67.4294L67.5439 60.1731L86.2643 27.7559H86.2499ZM16.4779 76.7753L24.8792 74.0559L43.5995 41.6245L29.1442 46.3189C23.7323 48.0815 19.2418 51.921 16.6599 56.9935C14.0781 62.0659 13.6162 67.9561 15.3759 73.369L16.4779 76.7753V76.7753ZM17.5656 97.6711V162.076C17.5656 167.77 19.8275 173.23 23.8535 177.256C27.8796 181.283 33.3402 183.544 39.0339 183.544H139.219C144.913 183.544 150.374 181.283 154.4 177.256C158.426 173.23 160.688 167.77 160.688 162.076V97.6711H17.5656Z" fill="#FBFBFB"/>
</svg>
